<svg xmlns="http://www.w3.org/2000/svg" version="1.1" xmlns:xlink="http://www.w3.org/1999/xlink" xmlns:svgjs="http://svgjs.dev/svgjs" width="1000" height="1000" viewBox="0 0 1000 1000"><rect width="1000" height="1000" fill="#ffffff"></rect><g transform="matrix(0.7,0,0,0.7,149.5757605995003,420.66218931137945)"><svg viewBox="0 0 396 90" data-background-color="#ffffff" preserveAspectRatio="xMidYMid meet" height="227" width="1000" xmlns="http://www.w3.org/2000/svg" xmlns:xlink="http://www.w3.org/1999/xlink"><g id="tight-bounds" transform="matrix(1,0,0,1,0.23999828942555723,-0.0635433481695884)"><svg viewBox="0 0 395.52 90.12708669633919" height="90.12708669633919" width="395.52"><g><svg viewBox="0 0 395.52 90.12708669633919" height="90.12708669633919" width="395.52"><g><svg viewBox="0 0 575.2663406836233 131.08586003306715" height="90.12708669633919" width="395.52"><g><rect width="4.93699495819745" height="95.32654799799744" x="161.88527515422837" y="17.879656017534856" fill="#4d331f" opacity="1" stroke-width="0" stroke="transparent" fill-opacity="1" class="rect-o-0" data-fill-palette-color="primary" rx="1%" id="o-0" data-palette-color="#4d331f"></rect></g><g transform="matrix(1,0,0,1,179.74634068362334,18.116786733947777)"><svg viewBox="0 0 395.52 94.8522865651716" height="94.8522865651716" width="395.52"><g id="textblocktransform"><svg viewBox="0 0 395.52 94.8522865651716" height="94.8522865651716" width="395.52" id="textblock"><g><svg viewBox="0 0 395.52 54.74538102643857" height="54.74538102643857" width="395.52"><g transform="matrix(1,0,0,1,0,0)"><svg width="395.52" viewBox="5 -39.54999923706055 291.0899963378906 40.04999923706055" height="54.74538102643857" data-palette-color="#4d331f"><g class="undefined-text-0" data-fill-palette-color="primary" id="text-0"><path d="M20.15 0L7.35 0Q6.35 0 5.68-0.6 5-1.2 5-2.15L5-2.15 5-36.9Q5-37.85 5.63-38.45 6.25-39.05 7.15-39.05L7.15-39.05 19.25-39.05Q22.4-39.05 24.88-37.75 27.35-36.45 28.78-34.2 30.2-31.95 30.2-29L30.2-29Q30.2-26.4 28.8-24.35 27.4-22.3 25.05-21.15L25.05-21.15Q28.4-20.3 30.43-17.88 32.45-15.45 32.45-11.65L32.45-11.65Q32.45-8.2 30.88-5.6 29.3-3 26.53-1.5 23.75 0 20.15 0L20.15 0ZM9.35-18.75L9.35-4.1 20.15-4.1Q22.55-4.1 24.35-5 26.15-5.9 27.2-7.58 28.25-9.25 28.25-11.65L28.25-11.65Q28.25-13.85 27.2-15.43 26.15-17 24.35-17.88 22.55-18.75 20.15-18.75L20.15-18.75 9.35-18.75ZM9.35-34.95L9.35-22.85 19.25-22.85Q22.2-22.85 24.1-24.45 26-26.05 26-29L26-29Q26-31.95 24.1-33.45 22.2-34.95 19.25-34.95L19.25-34.95 9.35-34.95ZM42.35 0L42.35 0Q41.45 0 40.82-0.63 40.2-1.25 40.2-2.15L40.2-2.15 40.2-36.9Q40.2-37.85 40.82-38.45 41.45-39.05 42.35-39.05L42.35-39.05Q43.3-39.05 43.92-38.45 44.55-37.85 44.55-36.9L44.55-36.9 44.55-2.15Q44.55-1.25 43.92-0.63 43.3 0 42.35 0ZM65.95 0L65.95 0Q65.05 0 64.42-0.63 63.8-1.25 63.8-2.15L63.8-2.15 63.8-39.05 68.15-39.05 68.15-2.15Q68.15-1.25 67.52-0.63 66.9 0 65.95 0ZM79.65-35.1L52.3-35.1Q51.4-35.1 50.85-35.65 50.3-36.2 50.3-37.05L50.3-37.05Q50.3-37.95 50.85-38.5 51.4-39.05 52.3-39.05L52.3-39.05 79.65-39.05Q80.55-39.05 81.1-38.5 81.65-37.95 81.65-37.05L81.65-37.05Q81.65-36.2 81.1-35.65 80.55-35.1 79.65-35.1L79.65-35.1Z" fill="#4d331f" data-fill-palette-color="primary"></path><path d="M104.2 0.5L104.2 0.5Q100.15 0.5 96.63-1.05 93.1-2.6 90.43-5.35 87.75-8.1 86.28-11.73 84.8-15.35 84.8-19.55L84.8-19.55Q84.8-23.7 86.28-27.33 87.75-30.95 90.4-33.68 93.05-36.4 96.58-37.98 100.1-39.55 104.2-39.55L104.2-39.55Q107.85-39.55 110.75-38.53 113.65-37.5 116.4-35.2L116.4-35.2Q116.85-34.85 116.98-34.43 117.1-34 117-33.6 116.9-33.2 116.6-32.95L116.6-32.95Q116.55-32.35 116.05-32 115.55-31.65 114.9-31.68 114.25-31.7 113.6-32.2L113.6-32.2Q111.7-33.85 109.5-34.68 107.3-35.5 104.2-35.5L104.2-35.5Q101.05-35.5 98.3-34.25 95.55-33 93.45-30.8 91.35-28.6 90.18-25.7 89-22.8 89-19.55L89-19.55Q89-16.2 90.18-13.33 91.35-10.45 93.45-8.25 95.55-6.05 98.3-4.8 101.05-3.55 104.2-3.55L104.2-3.55Q106.85-3.55 109.25-4.45 111.65-5.35 113.8-7L113.8-7Q114.5-7.55 115.25-7.45 116-7.35 116.53-6.8 117.05-6.25 117.05-5.35L117.05-5.35Q117.05-4.95 116.9-4.58 116.75-4.2 116.45-3.8L116.45-3.8Q113.85-1.55 110.73-0.53 107.6 0.5 104.2 0.5ZM143.35 0.5L143.35 0.5Q139 0.5 135.35-1 131.7-2.5 129.02-5.18 126.35-7.85 124.9-11.53 123.45-15.2 123.45-19.55L123.45-19.55Q123.45-23.9 124.9-27.55 126.35-31.2 129.02-33.88 131.7-36.55 135.35-38.05 139-39.55 143.35-39.55L143.35-39.55Q147.7-39.55 151.32-38.05 154.95-36.55 157.65-33.88 160.35-31.2 161.8-27.55 163.25-23.9 163.25-19.55L163.25-19.55Q163.25-15.2 161.8-11.53 160.35-7.85 157.65-5.18 154.95-2.5 151.32-1 147.7 0.5 143.35 0.5ZM143.35-3.55L143.35-3.55Q146.75-3.55 149.62-4.75 152.5-5.95 154.6-8.13 156.7-10.3 157.87-13.23 159.05-16.15 159.05-19.55L159.05-19.55Q159.05-22.95 157.87-25.85 156.7-28.75 154.6-30.93 152.5-33.1 149.62-34.3 146.75-35.5 143.35-35.5L143.35-35.5Q139.95-35.5 137.07-34.3 134.2-33.1 132.07-30.93 129.95-28.75 128.8-25.85 127.65-22.95 127.65-19.55L127.65-19.55Q127.65-16.15 128.8-13.23 129.95-10.3 132.07-8.13 134.2-5.95 137.07-4.75 139.95-3.55 143.35-3.55ZM170.4 0L170.4 0Q169.5 0 168.87-0.63 168.25-1.25 168.25-2.15L168.25-2.15 168.25-36.9Q168.25-37.85 168.85-38.45 169.45-39.05 170.4-39.05L170.4-39.05 193.55-39.05Q194.5-39.05 195.1-38.48 195.7-37.9 195.7-36.95L195.7-36.95Q195.7-36.1 195.1-35.52 194.5-34.95 193.55-34.95L193.55-34.95 172.55-34.95 172.55-21.7 187.8-21.7Q188.75-21.7 189.35-21.1 189.95-20.5 189.95-19.65L189.95-19.65Q189.95-18.75 189.35-18.15 188.75-17.55 187.8-17.55L187.8-17.55 172.55-17.55 172.55-2.15Q172.55-1.25 171.95-0.63 171.35 0 170.4 0ZM201.64 0L201.64 0Q200.74 0 200.12-0.63 199.49-1.25 199.49-2.15L199.49-2.15 199.49-36.9Q199.49-37.85 200.09-38.45 200.69-39.05 201.64-39.05L201.64-39.05 224.79-39.05Q225.74-39.05 226.34-38.48 226.94-37.9 226.94-36.95L226.94-36.95Q226.94-36.1 226.34-35.52 225.74-34.95 224.79-34.95L224.79-34.95 203.79-34.95 203.79-21.7 219.04-21.7Q219.99-21.7 220.59-21.1 221.19-20.5 221.19-19.65L221.19-19.65Q221.19-18.75 220.59-18.15 219.99-17.55 219.04-17.55L219.04-17.55 203.79-17.55 203.79-2.15Q203.79-1.25 203.19-0.63 202.59 0 201.64 0ZM259.19 0L235.99 0Q235.09 0 234.47-0.63 233.84-1.25 233.84-2.15L233.84-2.15 233.84-36.9Q233.84-37.85 234.47-38.45 235.09-39.05 235.99-39.05L235.99-39.05 259.19-39.05Q260.09-39.05 260.72-38.48 261.34-37.9 261.34-36.95L261.34-36.95Q261.34-36.1 260.72-35.52 260.09-34.95 259.19-34.95L259.19-34.95 238.19-34.95 238.19-21.7 253.39-21.7Q254.34-21.7 254.94-21.1 255.54-20.5 255.54-19.65L255.54-19.65Q255.54-18.75 254.94-18.15 254.34-17.55 253.39-17.55L253.39-17.55 238.19-17.55 238.19-4.1 259.19-4.1Q260.09-4.1 260.72-3.53 261.34-2.95 261.34-2.1L261.34-2.1Q261.34-1.15 260.72-0.58 260.09 0 259.19 0L259.19 0ZM293.94 0L270.74 0Q269.84 0 269.21-0.63 268.59-1.25 268.59-2.15L268.59-2.15 268.59-36.9Q268.59-37.85 269.21-38.45 269.84-39.05 270.74-39.05L270.74-39.05 293.94-39.05Q294.84-39.05 295.46-38.48 296.09-37.9 296.09-36.95L296.09-36.95Q296.09-36.1 295.46-35.52 294.84-34.95 293.94-34.95L293.94-34.95 272.94-34.95 272.94-21.7 288.14-21.7Q289.09-21.7 289.69-21.1 290.29-20.5 290.29-19.65L290.29-19.65Q290.29-18.75 289.69-18.15 289.09-17.55 288.14-17.55L288.14-17.55 272.94-17.55 272.94-4.1 293.94-4.1Q294.84-4.1 295.46-3.53 296.09-2.95 296.09-2.1L296.09-2.1Q296.09-1.15 295.46-0.58 294.84 0 293.94 0L293.94 0Z" fill="#e47812" data-fill-palette-color="secondary"></path></g></svg></g></svg></g><g transform="matrix(1,0,0,1,0,67.66945159763608)"><svg viewBox="0 0 300.5952 27.18283496753552" height="27.18283496753552" width="300.5952"><g transform="matrix(1,0,0,1,0,0)"><svg width="300.5952" viewBox="4.579999923706055 -37.45000076293945 531.2999877929688 48.05000305175781" height="27.18283496753552" data-palette-color="#e47812"><path d="M16.93-3.05L16.93-3.05Q18.9-3.05 20.61-3.7 22.33-4.35 23.78-5.35L23.78-5.35 25.83-2.6Q24.1-1.13 21.68-0.28 19.25 0.58 16.93 0.58L16.93 0.58Q13 0.58 10.24-1.11 7.48-2.8 6.03-5.86 4.58-8.93 4.58-13.05L4.58-13.05Q4.58-17 6.04-20.14 7.5-23.28 10.26-25.08 13.03-26.88 16.98-26.88L16.98-26.88Q19.5-26.88 21.71-26.11 23.93-25.35 25.78-23.83L25.78-23.83 23.73-21.03Q22.05-22.2 20.36-22.79 18.68-23.38 16.93-23.38L16.93-23.38Q13.53-23.38 11.33-20.83 9.13-18.28 9.13-13.05L9.13-13.05Q9.13-9.55 10.14-7.34 11.15-5.13 12.91-4.09 14.68-3.05 16.93-3.05ZM45.05-26.88L45.05-26.88Q48.77-26.88 51.28-25.19 53.8-23.5 55.06-20.43 56.32-17.35 56.32-13.18L56.32-13.18Q56.32-9.15 55.02-6.05 53.72-2.95 51.21-1.19 48.7 0.58 45 0.58L45 0.58Q41.3 0.58 38.77-1.13 36.25-2.83 34.96-5.91 33.67-9 33.67-13.13L33.67-13.13Q33.67-17.2 34.97-20.3 36.27-23.4 38.81-25.14 41.35-26.88 45.05-26.88ZM45.05-23.45L45.05-23.45Q41.65-23.45 39.91-20.94 38.17-18.43 38.17-13.13L38.17-13.13Q38.17-7.93 39.88-5.4 41.6-2.88 45-2.88L45-2.88Q48.4-2.88 50.11-5.4 51.82-7.93 51.82-13.18L51.82-13.18Q51.82-18.43 50.12-20.94 48.42-23.45 45.05-23.45ZM80.77-23.78L80.77-37.45 84.97-36.93 84.97 0 81.3 0 80.9-3.48Q79.42-1.38 77.51-0.4 75.59 0.58 73.42 0.58L73.42 0.58Q70 0.58 67.77-1.15 65.55-2.88 64.47-5.96 63.4-9.05 63.4-13.13L63.4-13.13Q63.4-17.07 64.62-20.19 65.84-23.3 68.16-25.09 70.47-26.88 73.72-26.88L73.72-26.88Q76-26.88 77.72-26.09 79.45-25.3 80.77-23.78L80.77-23.78ZM74.82-23.5L74.82-23.5Q71.52-23.5 69.75-20.93 67.97-18.35 67.97-13.13L67.97-13.13Q67.97-9.73 68.7-7.43 69.42-5.13 70.83-3.98 72.25-2.83 74.3-2.83L74.3-2.83Q76.55-2.83 78.13-4.1 79.72-5.38 80.77-6.98L80.77-6.98 80.77-20.13Q79.7-21.73 78.17-22.61 76.65-23.5 74.82-23.5ZM116.02-11.68L98.32-11.68Q98.44-8.63 99.49-6.69 100.54-4.75 102.27-3.84 103.99-2.93 106.02-2.93L106.02-2.93Q108.04-2.93 109.68-3.53 111.32-4.13 113.04-5.3L113.04-5.3 115.02-2.53Q113.17-1.07 110.81-0.25 108.44 0.58 105.97 0.58L105.97 0.58Q102.14 0.58 99.44-1.15 96.74-2.88 95.33-5.96 93.92-9.05 93.92-13.13L93.92-13.13Q93.92-17.13 95.34-20.23 96.77-23.33 99.34-25.1 101.92-26.88 105.42-26.88L105.42-26.88Q108.74-26.88 111.14-25.31 113.54-23.75 114.83-20.86 116.12-17.98 116.12-13.98L116.12-13.98Q116.12-13.3 116.09-12.71 116.07-12.13 116.02-11.68L116.02-11.68ZM105.47-23.43L105.47-23.43Q102.54-23.43 100.58-21.35 98.62-19.28 98.34-14.93L98.34-14.93 112.07-14.93Q111.99-19.15 110.22-21.29 108.44-23.43 105.47-23.43ZM130.56-3.85L130.56-3.85Q130.56-5.08 131.14-6.06 131.72-7.05 132.7-7.64 133.69-8.22 134.94-8.22L134.94-8.22Q136.22-8.22 137.22-7.64 138.22-7.05 138.79-6.06 139.37-5.08 139.37-3.85L139.37-3.85Q139.37-2.63 138.79-1.61 138.22-0.6 137.22-0.01 136.22 0.58 134.94 0.58L134.94 0.58Q133.69 0.58 132.7-0.01 131.72-0.6 131.14-1.61 130.56-2.63 130.56-3.85ZM166.91-3.05L166.91-3.05Q168.89-3.05 170.6-3.7 172.31-4.35 173.76-5.35L173.76-5.35 175.81-2.6Q174.09-1.13 171.66-0.28 169.24 0.58 166.91 0.58L166.91 0.58Q162.99 0.58 160.23-1.11 157.46-2.8 156.01-5.86 154.56-8.93 154.56-13.05L154.56-13.05Q154.56-17 156.03-20.14 157.49-23.28 160.25-25.08 163.01-26.88 166.96-26.88L166.96-26.88Q169.49-26.88 171.7-26.11 173.91-25.35 175.76-23.83L175.76-23.83 173.71-21.03Q172.04-22.2 170.35-22.79 168.66-23.38 166.91-23.38L166.91-23.38Q163.51-23.38 161.31-20.83 159.11-18.28 159.11-13.05L159.11-13.05Q159.11-9.55 160.13-7.34 161.14-5.13 162.9-4.09 164.66-3.05 166.91-3.05ZM195.04-26.88L195.04-26.88Q198.76-26.88 201.27-25.19 203.79-23.5 205.05-20.43 206.31-17.35 206.31-13.18L206.31-13.18Q206.31-9.15 205.01-6.05 203.71-2.95 201.2-1.19 198.69 0.58 194.99 0.58L194.99 0.58Q191.29 0.58 188.76-1.13 186.24-2.83 184.95-5.91 183.66-9 183.66-13.13L183.66-13.13Q183.66-17.2 184.96-20.3 186.26-23.4 188.8-25.14 191.34-26.88 195.04-26.88ZM195.04-23.45L195.04-23.45Q191.64-23.45 189.9-20.94 188.16-18.43 188.16-13.13L188.16-13.13Q188.16-7.93 189.87-5.4 191.59-2.88 194.99-2.88L194.99-2.88Q198.39-2.88 200.1-5.4 201.81-7.93 201.81-13.18L201.81-13.18Q201.81-18.43 200.11-20.94 198.41-23.45 195.04-23.45ZM230.56-37.45L230.56-37.45Q232.68-37.45 234.41-37.08 236.13-36.7 237.68-36.02L237.68-36.02 236.33-32.9Q235.06-33.45 233.63-33.73 232.21-34 230.68-34L230.68-34Q227.93-34 226.55-32.93 225.16-31.85 225.16-29.63L225.16-29.63 225.16-24.28 234.08-24.28 233.63-20.98 225.16-20.98 225.16 0 220.96 0 220.96-20.98 214.68-20.98 214.68-24.28 220.96-24.28 220.96-29.53Q220.96-31.98 222.22-33.75 223.48-35.52 225.66-36.49 227.83-37.45 230.56-37.45ZM260.56-37.45L260.56-37.45Q262.68-37.45 264.41-37.08 266.13-36.7 267.68-36.02L267.68-36.02 266.33-32.9Q265.06-33.45 263.63-33.73 262.21-34 260.68-34L260.68-34Q257.93-34 256.54-32.93 255.16-31.85 255.16-29.63L255.16-29.63 255.16-24.28 264.08-24.28 263.63-20.98 255.16-20.98 255.16 0 250.96 0 250.96-20.98 244.68-20.98 244.68-24.28 250.96-24.28 250.96-29.53Q250.96-31.98 252.22-33.75 253.48-35.52 255.66-36.49 257.83-37.45 260.56-37.45ZM296-11.68L278.3-11.68Q278.43-8.63 279.48-6.69 280.53-4.75 282.25-3.84 283.98-2.93 286-2.93L286-2.93Q288.03-2.93 289.67-3.53 291.3-4.13 293.03-5.3L293.03-5.3 295-2.53Q293.15-1.07 290.79-0.25 288.43 0.58 285.95 0.58L285.95 0.58Q282.13 0.58 279.43-1.15 276.73-2.88 275.31-5.96 273.9-9.05 273.9-13.13L273.9-13.13Q273.9-17.13 275.33-20.23 276.75-23.33 279.33-25.1 281.9-26.88 285.4-26.88L285.4-26.88Q288.73-26.88 291.13-25.31 293.53-23.75 294.81-20.86 296.1-17.98 296.1-13.98L296.1-13.98Q296.1-13.3 296.08-12.71 296.05-12.13 296-11.68L296-11.68ZM285.45-23.43L285.45-23.43Q282.53-23.43 280.56-21.35 278.6-19.28 278.33-14.93L278.33-14.93 292.05-14.93Q291.98-19.15 290.2-21.29 288.43-23.43 285.45-23.43ZM326-11.68L308.3-11.68Q308.43-8.63 309.48-6.69 310.53-4.75 312.25-3.84 313.98-2.93 316-2.93L316-2.93Q318.03-2.93 319.66-3.53 321.3-4.13 323.03-5.3L323.03-5.3 325-2.53Q323.15-1.07 320.79-0.25 318.43 0.58 315.95 0.58L315.95 0.58Q312.13 0.58 309.43-1.15 306.73-2.88 305.31-5.96 303.9-9.05 303.9-13.13L303.9-13.13Q303.9-17.13 305.33-20.23 306.75-23.33 309.33-25.1 311.9-26.88 315.4-26.88L315.4-26.88Q318.73-26.88 321.13-25.31 323.53-23.75 324.81-20.86 326.1-17.98 326.1-13.98L326.1-13.98Q326.1-13.3 326.08-12.71 326.05-12.13 326-11.68L326-11.68ZM315.45-23.43L315.45-23.43Q312.53-23.43 310.56-21.35 308.6-19.28 308.33-14.93L308.33-14.93 322.05-14.93Q321.98-19.15 320.2-21.29 318.43-23.43 315.45-23.43ZM340.55-3.85L340.55-3.85Q340.55-5.08 341.12-6.06 341.7-7.05 342.69-7.64 343.67-8.22 344.92-8.22L344.92-8.22Q346.2-8.22 347.2-7.64 348.2-7.05 348.77-6.06 349.35-5.08 349.35-3.85L349.35-3.85Q349.35-2.63 348.77-1.61 348.2-0.6 347.2-0.01 346.2 0.58 344.92 0.58L344.92 0.58Q343.67 0.58 342.69-0.01 341.7-0.6 341.12-1.61 340.55-2.63 340.55-3.85ZM378.9 0L365.25 0 365.25-3.23 369.35-3.23 369.35-23.1 365.25-23.1 365.25-26.33 372.55-26.33 373.32-20.1Q374.85-23.35 377.02-25.13 379.2-26.9 382.77-26.9L382.77-26.9Q383.87-26.9 384.73-26.74 385.6-26.58 386.5-26.33L386.5-26.33 385.27-22.58Q384.45-22.8 383.77-22.91 383.1-23.03 382.22-23.03L382.22-23.03Q379.2-23.03 377.02-20.88 374.85-18.73 373.55-14.38L373.55-14.38 373.55-3.23 378.9-3.23 378.9 0ZM385.9-17.43L382.45-17.43 382.45-23.15 382.87-26.33 386.5-26.33 385.9-17.43ZM415.99-11.68L398.29-11.68Q398.42-8.63 399.47-6.69 400.52-4.75 402.24-3.84 403.97-2.93 405.99-2.93L405.99-2.93Q408.02-2.93 409.66-3.53 411.29-4.13 413.02-5.3L413.02-5.3 414.99-2.53Q413.14-1.07 410.78-0.25 408.42 0.58 405.94 0.58L405.94 0.58Q402.12 0.58 399.42-1.15 396.72-2.88 395.31-5.96 393.89-9.05 393.89-13.13L393.89-13.13Q393.89-17.13 395.32-20.23 396.74-23.33 399.32-25.1 401.89-26.88 405.39-26.88L405.39-26.88Q408.72-26.88 411.12-25.31 413.52-23.75 414.81-20.86 416.09-17.98 416.09-13.98L416.09-13.98Q416.09-13.3 416.07-12.71 416.04-12.13 415.99-11.68L415.99-11.68ZM405.44-23.43L405.44-23.43Q402.52-23.43 400.56-21.35 398.59-19.28 398.32-14.93L398.32-14.93 412.04-14.93Q411.97-19.15 410.19-21.29 408.42-23.43 405.44-23.43ZM436.77-26.88L436.77-26.88Q440.27-26.88 442.35-25.18 444.44-23.48 445.37-20.39 446.29-17.3 446.29-13.18L446.29-13.18Q446.29-9.2 445.18-6.09 444.07-2.98 441.82-1.2 439.57 0.58 436.14 0.58L436.14 0.58Q431.82 0.58 429.19-2.48L429.19-2.48 429.19 10.08 424.99 10.6 424.99-26.33 428.57-26.33 428.92-22.65Q430.37-24.68 432.38-25.78 434.39-26.88 436.77-26.88ZM435.77-23.5L435.77-23.5Q433.59-23.5 431.93-22.19 430.27-20.88 429.19-19.28L429.19-19.28 429.19-6.23Q430.22-4.7 431.78-3.81 433.34-2.93 435.22-2.93L435.22-2.93Q438.49-2.93 440.14-5.43 441.79-7.93 441.79-13.2L441.79-13.2Q441.79-16.65 441.14-18.94 440.49-21.23 439.17-22.36 437.84-23.5 435.77-23.5ZM475.99-11.68L458.29-11.68Q458.41-8.63 459.46-6.69 460.51-4.75 462.24-3.84 463.96-2.93 465.99-2.93L465.99-2.93Q468.01-2.93 469.65-3.53 471.29-4.13 473.01-5.3L473.01-5.3 474.99-2.53Q473.14-1.07 470.78-0.25 468.41 0.58 465.94 0.58L465.94 0.58Q462.11 0.58 459.41-1.15 456.71-2.88 455.3-5.96 453.89-9.05 453.89-13.13L453.89-13.13Q453.89-17.13 455.31-20.23 456.74-23.33 459.31-25.1 461.89-26.88 465.39-26.88L465.39-26.88Q468.71-26.88 471.11-25.31 473.51-23.75 474.8-20.86 476.09-17.98 476.09-13.98L476.09-13.98Q476.09-13.3 476.06-12.71 476.04-12.13 475.99-11.68L475.99-11.68ZM465.44-23.43L465.44-23.43Q462.51-23.43 460.55-21.35 458.59-19.28 458.31-14.93L458.31-14.93 472.04-14.93Q471.96-19.15 470.19-21.29 468.41-23.43 465.44-23.43ZM503.84-18.38L503.84-5.75Q503.84-4.17 504.36-3.45 504.89-2.73 505.99-2.38L505.99-2.38 504.96 0.58Q503.26 0.35 501.99-0.51 500.71-1.38 500.14-3.13L500.14-3.13Q498.71-1.3 496.59-0.36 494.46 0.58 491.89 0.58L491.89 0.58Q487.94 0.58 485.66-1.65 483.39-3.88 483.39-7.55L483.39-7.55Q483.39-11.63 486.56-13.8 489.74-15.98 495.74-15.98L495.74-15.98 499.61-15.98 499.61-18.18Q499.61-21.03 497.95-22.21 496.29-23.4 493.34-23.4L493.34-23.4Q492.04-23.4 490.29-23.09 488.54-22.78 486.49-22.05L486.49-22.05 485.39-25.23Q487.81-26.13 489.94-26.5 492.06-26.88 493.99-26.88L493.99-26.88Q498.91-26.88 501.37-24.59 503.84-22.3 503.84-18.38L503.84-18.38ZM492.96-2.63L492.96-2.63Q494.91-2.63 496.69-3.61 498.46-4.6 499.61-6.35L499.61-6.35 499.61-13.13 495.81-13.13Q491.46-13.13 489.67-11.63 487.89-10.13 487.89-7.6L487.89-7.6Q487.89-5.15 489.15-3.89 490.41-2.63 492.96-2.63ZM534.26-4.17L535.88-1.33Q534.53-0.43 532.61 0.08 530.68 0.58 528.83 0.58L528.83 0.58Q524.58 0.58 522.28-1.65 519.98-3.88 519.98-7.38L519.98-7.38 519.98-23.08 513.93-23.08 513.93-26.33 519.98-26.33 519.98-32.3 524.18-32.8 524.18-26.33 533.28-26.33 532.78-23.08 524.18-23.08 524.18-7.43Q524.18-5.23 525.35-4.08 526.51-2.93 529.21-2.93L529.21-2.93Q530.68-2.93 531.93-3.28 533.18-3.63 534.26-4.17L534.26-4.17Z" opacity="1" transform="matrix(1,0,0,1,0,0)" fill="#e47812" class="undefined-text-1" data-fill-palette-color="secondary" id="text-1"></path></svg></g></svg></g></svg></g></svg></g><g><svg viewBox="0 0 148.96120458303085 131.08586003306715" height="131.08586003306715" width="148.96120458303085"><g><svg xmlns="http://www.w3.org/2000/svg" xmlns:xlink="http://www.w3.org/1999/xlink" version="1.1" x="0" y="0" viewBox="0 6 100 88" enable-background="new 0 0 100 100" xml:space="preserve" height="131.08586003306715" width="148.96120458303085" class="icon-icon-0" data-fill-palette-color="accent" id="icon-0"><g fill="#e47812" data-fill-palette-color="accent"><path d="M41.751 59.098v6.119L20 55.789v-5.232l21.751-9.427v6.162l-15.156 5.839L41.751 59.098z" fill="#e47812" data-fill-palette-color="accent"></path><path d="M55.2 41l-6.055 24.93c-0.201 0.821-0.377 1.471-0.529 1.946-0.151 0.476-0.382 0.849-0.691 1.112-0.31 0.268-0.761 0.4-1.352 0.4-1.47 0-2.206-0.636-2.206-1.902 0-0.332 0.145-1.16 0.433-2.486l6.033-24.93c0.317-1.326 0.619-2.234 0.907-2.724 0.289-0.49 0.851-0.735 1.688-0.735 0.721 0 1.271 0.173 1.653 0.519 0.382 0.346 0.573 0.822 0.573 1.427C55.654 39.004 55.502 39.818 55.2 41z" fill="#e47812" data-fill-palette-color="accent"></path><path d="M80 55.789L58.249 65.26v-6.119l15.2-5.967-15.2-5.882v-6.076L80 50.6V55.789z" fill="#e47812" data-fill-palette-color="accent"></path></g><path d="M94 6H6c-3.313 0-6 2.687-6 6v76c0 3.313 2.687 6 6 6h88c3.314 0 6-2.688 6-6V12C100 8.686 97.314 6 94 6zM79 10c2.205 0 4 1.794 4 4s-1.795 4-4 4-4-1.794-4-4S76.795 10 79 10zM68 10c2.205 0 4 1.794 4 4s-1.795 4-4 4-4-1.794-4-4S65.795 10 68 10zM94 88H6V22h88V88zM90 18c-2.205 0-4-1.794-4-4s1.795-4 4-4 4 1.794 4 4S92.205 18 90 18z" fill="#e47812" data-fill-palette-color="accent"></path></svg></g></svg></g></svg></g></svg></g><defs></defs></svg><rect width="395.52" height="90.12708669633919" fill="none" stroke="none" visibility="hidden"></rect></g></svg></g></svg>